<svg id="Capa_1" data-name="Capa 1" xmlns="http://www.w3.org/2000/svg" viewBox="0 0 1121.82 1080"><defs><style>.cls-1,.cls-5{fill:#10cfc9;}.cls-1{stroke:#10cfc9;stroke-miterlimit:10;}.cls-2{fill:#1d224c;}.cls-3{fill:#ffc600;}.cls-4{fill:#f5333f;}</style></defs><title>B2</title><path class="cls-1" d="M248.89,992.43h-11.3c-105.24,0-166.52-13.5-187.35-41.27C43.94,942.37,40,923.92,37.7,893c-1.1-13-1.64-58.5-1.64-139.16l-1.61-137V487.69c0-101,2.72-180.39,8.09-236.08,4.4-48.64,12.34-82,24.27-101.85C79,129.52,99,115.79,126.37,109c9.27-2.31,31.4-3.42,67.68-3.42,98.73,0,190,6.81,271.18,20.25,81.47,13.51,146.37,31.87,192.88,54.59a253.75,253.75,0,0,1,68.81,53c20.48,22.17,34.25,44.72,40.94,67,5.64,22.54,8.34,39.4,8.34,51.83,0,51.08-22.39,97.69-66.56,138.55L681.55,515,690.2,519c55.33,22.14,91.91,72.53,108.43,149.63,5.53,27.67,8.21,48.13,8.21,62.62,0,57.59-21.64,105.34-64.32,141.93-42,36-108.28,65.21-197,86.84C454.08,981.52,354.29,992.43,248.89,992.43ZM194.05,118.3c-43.27,0-59,1.66-64.58,3-24,6-41.36,17.76-51.7,35C67,174.28,59.43,206.73,55.26,252.8c-5.33,55.32-8,134.34-8,234.89v129l1.61,137c0,79.26.54,125.74,1.59,138.23,2.68,36.42,7.49,48,10.11,51.64,17.92,23.89,77.51,36,177.05,36h11.3c104.41,0,203.22-10.79,293.67-32.09,86.69-21.13,151.18-49.43,191.65-84.11,39.72-34.06,59.86-78.54,59.86-132.23,0-13.45-2.67-33.65-8-60-15.56-72.6-49.52-119.89-100.93-140.47l-27.1-12.31,43-37.16c41.28-38.2,62.3-81.65,62.3-129,0-11.22-2.66-27.52-7.88-48.45-6-20.14-18.86-41-38-61.72a240.69,240.69,0,0,0-65.19-50.27c-45.25-22.1-109-40.09-189.21-53.4C382.62,125.06,292.08,118.3,194.05,118.3ZM400.48,742.45h-12.9l-33.13-1.94L350.55,707V687.68c0-41.93,7.69-63.37,24.2-67.49l.91-.16,32.89-3.25c21.15,0,40.4,3.4,57.21,10.13,28.38,11.83,42.72,28.46,42.72,49.47,0,15-6.86,27.6-20.37,37.43C465.89,732.72,436.29,742.45,400.48,742.45Zm-34.59-14.06,22.07,1.3h12.52c32.69,0,59.51-8.72,79.73-25.9,10.55-7.7,15.49-16.56,15.49-27.4,0-15.57-11.37-27.89-34.77-37.64-15.13-6-32.67-9.15-52.06-9.19l-31.4,3.14c-4.54,1.43-14.14,9.8-14.14,55v19ZM397.26,445.7H355.39V407.06c0-25.91,3.1-41.37,9.73-48.66,6.79-7.48,21.11-11,45.05-11,59.92,0,72.5,25.4,72.5,46.71C482.67,428.35,453.94,445.7,397.26,445.7Zm-29.09-12.78h29.09c72.64,0,72.64-29.18,72.64-38.77,0-8.39,0-33.93-59.73-33.93-26.57,0-33.75,4.74-35.6,6.78s-6.4,10.24-6.4,40.06Z"/><path class="cls-2" d="M215.82,87.64q148.37,0,270.14,20.16t191.11,54A246.22,246.22,0,0,1,744,213.43q29.82,32.3,39.51,64.51,8.07,32.28,8.07,50,0,74.21-64.51,133.87l-35.48,30.64,17.74,8.06Q790,532.79,814.15,645.66q8.07,40.33,8.07,61.28,0,83.88-62.09,137.09T565.79,929.51q-137.1,32.26-295.13,32.25h-11.3q-153.24,0-182.24-38.71Q69,911.79,65.83,868.22q-1.64-19.35-1.61-138.7L62.61,592.43v-129q0-151.56,8.06-235.46Q77.09,157,94.06,128.77t55.63-37.91Q162.59,87.67,215.82,87.64Zm214.5,511.25-32.25,3.23q-19.36,4.82-19.36,61.28v19.35l3.23,27.42,27.41,1.61h12.9q51.6,0,83.87-27.42,17.73-12.89,17.74-32.26,0-27.39-38.71-43.54Q461,598.9,430.32,598.89Zm1.61-269.33q-32.28,0-40.32,8.86t-8.06,44.36V415H419q79,0,79-45.16Q498.05,329.58,431.93,329.56Z"/><path class="cls-3" d="M999.57,278.8c-14.25,44.69-47.45,81.28-80.4,113.38-36,35.06-63.06,75.61-92.88,115.89-29.67,40.09-43.07-14.61-42.5-41.4.83-39,12.52-75.11,28.2-110.2,15.17-33.94,35-64.7,63.61-89.09,16.24-13.82,33.9-25.34,53.76-33.23,12.93-5.14,26.22-8.56,40.38-6.67C1003,231.94,1007.74,253.2,999.57,278.8Z"/><path class="cls-4" d="M932.28,604.61c42.15,7.16,76.05,16.9,107.8,33.42,14.79,7.7,28.66,16.69,39.7,29.34a86.51,86.51,0,0,1,11.85,16.83c8.82,17.11,9.87,34.54-1.58,50.95-11.58,16.57-28.29,22.77-48,21.32-14.79-1.08-27.53-7.75-38.69-16.77-16.44-13.28-32.15-27.45-48.08-41.35s-31.35-28.4-47.72-41.74c-21.28-17.34-45.08-30.06-72.48-35-1.35-.25-3-.26-3.95-1-2-1.59-4.37-3.4-5-5.59-.41-1.38,1.6-4.51,3.26-5.28,4.93-2.28,10.1-4.58,15.4-5.45C876.33,599,907.9,599.06,932.28,604.61Z"/><path class="cls-5" d="M1034.89,446.51a74.66,74.66,0,0,1,9.95,3.4c10.92,5.21,16.12,15.32,11.15,26.19-4.08,8.93-10,18.13-17.49,24.13a212.15,212.15,0,0,1-39.69,24.71,253,253,0,0,1-80.56,23.48c-14.63,1.74-29.23,3.79-43.89,5.2a77.09,77.09,0,0,1-17.89-.52c-10-1.41-12.39-7.18-6-15.34,5.92-7.61,12.1-15.27,19.34-21.55C903.52,487,940.41,463,983.9,450.73,1000,446.19,1016.26,443.51,1034.89,446.51Z"/></svg>