<?xml version="1.0" encoding="UTF-8"?>
<svg width="156px" height="32px" viewBox="0 0 156 32" version="1.1" xmlns="http://www.w3.org/2000/svg" xmlns:xlink="http://www.w3.org/1999/xlink">
    <defs>
        <linearGradient x1="95.059%" y1="50%" x2="5.575%" y2="50%" id="linearGradient-1">
            <stop stop-color="#00C5EB" offset="0%"></stop>
            <stop stop-color="#0088FF" offset="100%"></stop>
        </linearGradient>
        <linearGradient x1="95.059%" y1="50%" x2="5.575%" y2="50%" id="linearGradient-2">
            <stop stop-color="#2ED4FF" offset="0%"></stop>
            <stop stop-color="#0088FF" offset="98.277%"></stop>
        </linearGradient>
        <linearGradient x1="48.165%" y1="66.639%" x2="0%" y2="0%" id="linearGradient-3">
            <stop stop-color="#4F40DC" stop-opacity="0.24" offset="0%"></stop>
            <stop stop-color="#3525D3" offset="100%"></stop>
        </linearGradient>
    </defs>
    <g stroke="none" stroke-width="1" fill="none" fill-rule="evenodd">
        <g transform="translate(-873.000000, -48.000000)" fill-rule="nonzero">
            <g transform="translate(873.000000, 48.000000)">
                <g>
                    <path d="M4,0 L24,0 C28.418278,2.705415e-16 32,3.581722 32,8 C32,12.418278 28.418278,16 24,16 L0,16 L0,4 C-2.705415e-16,1.790861 1.790861,4.05812251e-16 4,0 Z" fill="url(#linearGradient-1)"></path>
                    <path d="M0,16 L24,16 C28.418278,16 32,19.581722 32,24 C32,28.418278 28.418278,32 24,32 L4,32 C1.790861,32 2.705415e-16,30.209139 0,28 L0,16 Z" fill="url(#linearGradient-2)"></path>
                    <path d="M4,0 L16,0 L16,32 L4,32 C1.790861,32 2.705415e-16,30.209139 0,28 L0,4 C-2.705415e-16,1.790861 1.790861,4.05812251e-16 4,0 Z" fill="url(#linearGradient-3)" opacity="0.64"></path>
                </g>
            </g>
        </g>
    </g>
</svg>