<svg id="Capa_1" data-name="Capa 1" xmlns="http://www.w3.org/2000/svg" viewBox="0 0 809.73 617.38"><defs><style>.cls-1{fill:#10cfc9;}.cls-2{fill:#fff;}.cls-3{fill:#ffc600;}.cls-4{fill:#f5333f;}</style></defs><title>MARCA FINAL</title><path class="cls-1" d="M261.54,270.22h-2.48c-23.09,0-36.53-3-41.1-9.06-1.38-1.92-2.25-6-2.75-12.76-.24-2.85-.36-12.84-.36-30.53l-.35-30.06V159.49c0-22.15.59-39.57,1.77-51.79,1-10.67,2.71-18,5.32-22.35s7.07-7.45,13.07-8.95c2-.5,6.89-.75,14.85-.75A368.43,368.43,0,0,1,309,80.09c17.87,3,32.11,7,42.31,12a55.48,55.48,0,0,1,15.1,11.63c4.49,4.86,7.51,9.81,9,14.7a49.59,49.59,0,0,1,1.83,11.37c0,11.2-4.92,21.43-14.6,30.39l-6.17,5.33,1.9.86c12.14,4.86,20.17,15.91,23.79,32.82a75.84,75.84,0,0,1,1.8,13.74c0,12.64-4.75,23.11-14.11,31.14-9.21,7.89-23.75,14.3-43.21,19.05A285,285,0,0,1,261.54,270.22Zm-12-191.77c-9.5,0-12.95.37-14.17.67-5.26,1.32-9.07,3.9-11.34,7.68-2.36,3.93-4,11-4.94,21.16-1.17,12.13-1.76,29.47-1.76,51.53v28.3l.35,30.06c0,17.38.12,27.58.35,30.33.59,8,1.64,10.52,2.22,11.33,3.93,5.23,17,7.9,38.84,7.9h2.48a282,282,0,0,0,64.42-7c19-4.63,33.17-10.84,42.05-18.45,8.71-7.47,13.13-17.23,13.13-29a74.59,74.59,0,0,0-1.74-13.17c-3.42-15.92-10.87-26.3-22.15-30.81l-5.94-2.7,9.44-8.15c9.05-8.38,13.66-17.92,13.66-28.31a48.14,48.14,0,0,0-1.72-10.63c-1.33-4.41-4.14-9-8.34-13.54a53,53,0,0,0-14.3-11c-9.93-4.85-23.91-8.79-41.51-11.71A365,365,0,0,0,249.51,78.45ZM294.8,215.38H292L284.7,215l-.86-7.34v-4.25c0-9.2,1.69-13.9,5.31-14.8l.2,0,7.21-.71A33.62,33.62,0,0,1,309.11,190c6.23,2.59,9.38,6.24,9.38,10.85a9.84,9.84,0,0,1-4.47,8.21C309.14,213.24,302.65,215.38,294.8,215.38Zm-7.59-3.09,4.84.29h2.75c7.16,0,13.05-1.91,17.49-5.68,2.31-1.69,3.39-3.63,3.39-6,0-3.41-2.49-6.12-7.63-8.26a31.09,31.09,0,0,0-11.42-2l-6.88.69c-1,.31-3.11,2.15-3.11,12.06v4.16Zm6.88-62H284.9V141.8c0-5.69.68-9.08,2.14-10.67s4.63-2.41,9.88-2.41c13.15,0,15.91,5.57,15.91,10.25C312.83,146.47,306.52,150.27,294.09,150.27Zm-6.38-2.8h6.38c15.93,0,15.93-6.4,15.93-8.5,0-1.84,0-7.45-13.1-7.45-5.83,0-7.4,1-7.81,1.49s-1.4,2.25-1.4,8.79Z"/><path class="cls-1" d="M553.78,268.45a10.81,10.81,0,0,1-3-.36h-2.27c-5.4-.5-9.32-2-11.78-4.48s-4.57-6.84-6.54-13.51l-2.55-8.28-7.2-.62c-8.46-.94-20.55-1.41-36-1.41-9.56,0-12.87.18-14,.34l-10.5,1-3.24,9.07c-2.2,6.12-4,10-5.56,11.76s-4.58,3.23-9,4S431.17,267,422.17,267c-9.19,0-15.38-.48-18.95-1.47-4-1.1-6.16-4-6.16-8.42,0-4.94,3.38-16.78,10.34-36.21,8.46-24.2,16.31-47.4,23.34-69,13.92-42.74,24.45-65.46,32.18-69.45,3.09-1.29,7.2-1.92,12.32-1.92,8.9,0,18.34.29,28,.88,9.93.61,16.11,1.52,18.89,2.78,2.68,1.07,5.36,4.67,8.14,11s7.83,19.36,14.89,38.65c9.34,23.82,17.31,43.32,23.67,57.94C584.42,228.69,592,249.47,592,255.37c0,2.85-1.64,5.38-4.88,7.53C581.64,266.63,570.74,268.45,553.78,268.45ZM551,265.29h.23l.22.07a7.71,7.71,0,0,0,2.38.28c16.15,0,26.83-1.7,31.76-5.06,2.45-1.63,3.63-3.33,3.63-5.21,0-5.44-7.7-26.45-22.88-62.43-6.38-14.64-14.36-34.18-23.72-58.06-7.05-19.26-12-32.21-14.84-38.51-3-6.88-5.3-9-6.67-9.53-1.73-.78-6.19-1.83-18-2.55-9.64-.59-19-.88-27.86-.88-4.74,0-8.49.56-11.14,1.66-4.67,2.41-13.89,16.18-30.7,67.77-7,21.58-14.89,44.8-23.36,69-6.75,18.86-10.18,30.72-10.18,35.27,0,3.14,1.31,4.95,4.1,5.72,3.28.91,9.4,1.37,18.21,1.37s15.43-.35,19.58-1c3.65-.65,6.11-1.68,7.3-3.07.89-1,2.49-3.77,5.05-10.89l3.84-10.74,12.21-1.15c1.68-.23,6.37-.36,14.29-.36,15.51,0,27.7.48,36.24,1.43l9,.79,3.11,10.09c1.81,6.14,3.78,10.28,5.84,12.34s5.33,3.23,9.93,3.67Zm-54.49-75.74c-16.72,0-20.15-1.84-20.15-4.59,0-1.48.76-5.42,7.35-22.44,7.59-19.65,8.36-19.65,9.62-19.65s1.22,0,7.63,13.17c6.53,14.76,9.69,23.85,9.69,27.86,0,2.55-1.52,4.29-4.28,4.91A48.75,48.75,0,0,1,496.46,189.55Zm-17.34-4.7c.39.42,2.8,1.89,17.34,1.89a46.12,46.12,0,0,0,9.25-.67c1.84-.41,2.09-1.28,2.09-2.17,0-2.45-1.64-9.06-9.43-26.68-2.8-5.75-4.34-8.79-5.17-10.37-1,2-3,6.48-6.93,16.68C480.23,179.14,479.18,183.6,479.12,184.85Z"/><path class="cls-1" d="M207.23,515.6h-6.37c-14.33-.71-26-3-34.69-6.65s-17.76-10.3-26.81-19.6c-20-19.73-30.12-45.66-30.12-77,0-8,.48-13.67,1.47-17.35,2.35-12.07,7.67-24,15.77-35.3A123.23,123.23,0,0,1,156,330.49a98.2,98.2,0,0,1,36.43-16.14,108.55,108.55,0,0,1,19-1.8,157.77,157.77,0,0,1,46.4,7.14c7.08,2.19,11.86,4.36,14.63,6.62a11.47,11.47,0,0,1,4.41,9.22c0,2.79-1.83,9.14-5.57,19.41a187.63,187.63,0,0,1-10.13,23.65,6.4,6.4,0,0,1-6.23,4.34c-1,0-3.14-.31-9.39-2.94a66.77,66.77,0,0,0-26.69-5.91h-2l-1.63.33c-6.66.92-13.29,3.81-19.79,8.6s-11.31,10.34-14.25,16.46a43.16,43.16,0,0,0-3.75,18.14c0,11.61,3.26,20.93,9.69,27.7s17.21,10.18,32.07,10.18a59.68,59.68,0,0,0,24.89-5.19,22,22,0,0,1,10.49-2.6,9.53,9.53,0,0,1,7,2.53c2.05,2.31,5,7.57,8.94,16.15,3.91,8.4,6.07,14,6.63,17a10.34,10.34,0,0,1,.4,3.59c0,4.51-2.12,8.12-6.32,10.74-3.83,2.88-11.26,6.08-22.6,9.7C232.86,512.84,218.9,515.6,207.23,515.6Zm4.25-200.25A106.08,106.08,0,0,0,193,317.1a95.49,95.49,0,0,0-35.35,15.69,120.2,120.2,0,0,0-28.86,28.5c-7.87,11-13,22.54-15.33,34.3-.92,3.49-1.39,9.08-1.39,16.72,0,30.6,9.86,55.86,29.31,75.07,8.8,9,17.52,15.42,25.92,19s19.73,5.74,33.66,6.43h6.3c11.36,0,25-2.71,40.59-8.06,10.91-3.48,18.27-6.63,21.9-9.35,3.46-2.17,5.1-4.9,5.1-8.43a8.28,8.28,0,0,0-.21-2.57l-.13-.38c-.45-2.7-2.61-8.23-6.43-16.45s-6.66-13.39-8.44-15.4a6.77,6.77,0,0,0-5-1.65,19.29,19.29,0,0,0-9.24,2.3,62.54,62.54,0,0,1-26.14,5.48c-15.66,0-27.13-3.72-34.1-11.05S174.69,430,174.69,417.61a46.12,46.12,0,0,1,4-19.33,47.78,47.78,0,0,1,15.13-17.53c6.88-5.07,13.94-8.13,21-9.1l2-.37h2.13a69.54,69.54,0,0,1,27.8,6.13c5.59,2.36,7.59,2.72,8.28,2.72a3.63,3.63,0,0,0,3.66-2.66l.06-.15a182.17,182.17,0,0,0,10-23.34c4.47-12.24,5.4-16.78,5.4-18.45a8.63,8.63,0,0,0-3.38-7c-2.44-2-7.05-4.06-13.67-6.11A154.92,154.92,0,0,0,211.48,315.35Z"/><path class="cls-1" d="M452.41,512.33a10.85,10.85,0,0,1-3-.35H447.1c-5.39-.5-9.31-2-11.78-4.48s-4.57-6.84-6.54-13.51l-2.55-8.28-7.2-.62c-8.46-.94-20.55-1.41-36-1.41-9.55,0-12.86.18-14,.34l-10.5,1-3.24,9.07c-2.2,6.12-4,10-5.56,11.76s-4.57,3.23-9,4-11.06,1.08-20.05,1.08c-9.18,0-15.38-.48-18.95-1.47-4-1.1-6.16-4-6.16-8.42,0-4.94,3.39-16.78,10.34-36.21,8.48-24.25,16.34-47.46,23.34-68.95,13.93-42.74,24.45-65.46,32.18-69.45,3.1-1.3,7.21-1.93,12.32-1.93,8.92,0,18.35.3,28,.89,9.94.61,16.12,1.52,18.9,2.78,2.67,1.07,5.35,4.66,8.13,11s7.84,19.36,14.89,38.65c9.34,23.8,17.3,43.31,23.68,57.94,15.55,36.86,23.11,57.64,23.11,63.54,0,2.85-1.64,5.38-4.87,7.53C480.27,510.52,469.37,512.33,452.41,512.33Zm-2.83-3.15h.23l.22.07a7.71,7.71,0,0,0,2.38.28c16.15,0,26.84-1.7,31.76-5.06,2.45-1.63,3.64-3.33,3.64-5.21,0-5.44-7.7-26.45-22.89-62.43-6.38-14.65-14.36-34.19-23.72-58.06-7-19.26-12-32.2-14.83-38.51-3-6.88-5.31-9-6.68-9.53-1.72-.78-6.18-1.83-18-2.55-9.63-.59-19-.88-27.86-.88-4.74,0-8.49.55-11.14,1.66-4.67,2.41-13.88,16.18-30.69,67.77-7,21.52-14.88,44.74-23.36,69-6.76,18.86-10.18,30.72-10.18,35.27,0,3.13,1.3,5,4.09,5.72,3.28.91,9.41,1.37,18.21,1.37s15.43-.35,19.58-1.05c3.65-.64,6.12-1.67,7.31-3.06.89-1,2.49-3.78,5.05-10.89l3.83-10.74,12.22-1.15c1.67-.24,6.37-.36,14.28-.36,15.51,0,27.7.48,36.24,1.43l9,.78,3.11,10.1c1.82,6.13,3.78,10.28,5.84,12.34s5.34,3.23,9.94,3.66ZM395.1,433.44c-16.73,0-20.16-1.84-20.16-4.59,0-1.48.77-5.42,7.35-22.44,7.6-19.65,8.36-19.65,9.62-19.65s1.23,0,7.63,13.17c6.53,14.75,9.7,23.85,9.7,27.86,0,2.55-1.53,4.29-4.29,4.91A48.63,48.63,0,0,1,395.1,433.44Zm-17.35-4.7c.39.42,2.8,1.89,17.35,1.89a46.08,46.08,0,0,0,9.24-.67c1.84-.41,2.09-1.28,2.09-2.17,0-2.45-1.63-9.06-9.43-26.68-2.8-5.75-4.33-8.79-5.17-10.37-1,2-3,6.48-6.92,16.68C378.87,423,377.81,427.49,377.75,428.74Z"/><path class="cls-1" d="M644.17,509.5c-6.58,0-8.57-.45-9.5-.79-1.53-.55-3.28-1.95-5.34-4.28-3.34-3.32-8.37-10.23-15.35-21-23.31-35-32-47.26-35.16-51.26-.21,2.1-.5,6.12-.82,13.76-1.8,51.5-4.3,54-5.36,55.07-2.7,2.69-9.53,4-21.51,4a28.93,28.93,0,0,1-4.72-.36h-5.19q-3.81-.36-13.87-.88c-7.61-.4-11.65-1.8-12.73-4.41-.89-2.15-1.56-6.17-2-12.28-.71-8.25-1.07-33.4-1.07-74.76,0-39.86.24-64.07.71-74,.25-7.63,2.45-12.34,6.54-14l.25-.07c2.47-.5,7.31-.74,14.78-.74h8.14a175.33,175.33,0,0,1,18.78,1.25,21,21,0,0,1,10,4,58.79,58.79,0,0,1,9.09,10.16l44.58,59.44.06.09c.32-2.32.84-7.82,1.67-20.57a71.9,71.9,0,0,0,.35-8.05c1.18-15.63,2.25-26.33,3.2-31.9,1-5.9,3.11-10,6.27-12.07s8.21-3.07,15.64-3.07l17.36.36h0c10.11,0,16.49.48,19.51,1.48,3.55,1.1,5.78,3.72,6.59,7.78,1,6.34,1.56,28.05,1.8,66.43,0,7.31.12,13.6.35,18.69v16.7c0,25.41-.72,43-2.14,52.22-1,6.38-2.26,10.78-3.91,13.44a11.73,11.73,0,0,1-7.2,5.39,142.29,142.29,0,0,1-15.21,2.51A221.65,221.65,0,0,1,644.17,509.5ZM578,427.8l.28,0c1,.21,2.34.47,38,54,6.77,10.52,11.83,17.46,15,20.66,2.2,2.48,3.52,3.3,4.26,3.57s2.88.62,8.54.62a220.07,220.07,0,0,0,24.25-1.76,139.6,139.6,0,0,0,14.85-2.44,8.93,8.93,0,0,0,5.53-4.16c1.43-2.3,2.61-6.47,3.52-12.39,1.4-9.09,2.11-26.52,2.11-51.79V417.53c-.23-5.08-.36-11.41-.36-18.75-.23-37.71-.82-59.9-1.75-65.95-.59-3-2.13-4.81-4.69-5.6s-9-1.35-18.69-1.35l-17.36-.35c-6.74,0-11.47.87-14.06,2.59s-4.19,5.1-5,10.21c-.94,5.49-2,16.1-3.17,31.54a72.44,72.44,0,0,1-.36,8.2c-1.45,22.39-2,22.89-2.53,23.47a2,2,0,0,1-1.58.58c-.91-.09-1.74-.78-2.7-2.21L577.6,340.53a56.5,56.5,0,0,0-8.6-9.65,18.19,18.19,0,0,0-8.71-3.42,171,171,0,0,0-18.4-1.23h-8.1c-7,0-11.79.22-14.1.66-2.89,1.24-4.46,5.08-4.67,11.43-.47,9.92-.7,34.09-.7,73.9,0,41.28.35,66.35,1,74.53.46,5.74,1.08,9.59,1.85,11.44.21.52,1.57,2.23,10.27,2.68,6.75.34,11.42.64,13.87.88h5.28l.12,0a26.79,26.79,0,0,0,4.37.33c13.55,0,18.1-1.7,19.53-3.12.83-1,3-8.05,4.54-53.2C576,427.8,576.35,427.8,578,427.8Z"/><path class="cls-1" d="M399.92,317.74c-6.06,0-12.39-.47-17.86-.88-2.85-.22-5.31-.4-7.27-.48-3.8-.15-8-.74-10.16-4-1.91-2.86-1.32-6.46-.61-9.61l2.35-10.56c.51-2.27,1.17-4.6,3.18-6a8.75,8.75,0,0,1,4.08-1.23,121.62,121.62,0,0,1,41,2.13A15.2,15.2,0,0,1,426.45,299a14.25,14.25,0,0,1-6.08,14.71C415.93,316.86,408.17,317.74,399.92,317.74Zm-12-30.77a121,121,0,0,0-14,.82,6.39,6.39,0,0,0-2.83.77c-1.15.79-1.61,2.46-2,4.26l-2.36,10.56c-.6,2.71-1.08,5.51.21,7.44,1.48,2.21,4.84,2.64,7.94,2.76h0c2,.08,4.49.26,7.37.48,11.79.89,29.61,2.23,36.48-2.62a11.51,11.51,0,0,0,4.95-11.87,12.43,12.43,0,0,0-9.71-9.7A119,119,0,0,0,387.91,287Z"/><path class="cls-2" d="M254.28,71.73a364.34,364.34,0,0,1,59.27,4.42q26.7,4.42,41.92,11.85a54,54,0,0,1,14.68,11.32q6.56,7.08,8.67,14.15a48.9,48.9,0,0,1,1.77,11q0,16.27-14.15,29.37l-7.78,6.72,3.89,1.77q17.68,7.08,23,31.84a74.72,74.72,0,0,1,1.77,13.45q0,18.39-13.62,30.07t-42.63,18.75a282.1,282.1,0,0,1-64.75,7.08h-2.47q-33.63,0-40-8.49-1.79-2.48-2.48-12-.36-4.25-.35-30.43l-.36-30.07V154.16q0-33.24,1.77-51.65,1.41-15.57,5.13-21.76t12.21-8.32Q242.6,71.72,254.28,71.73Zm47.06,112.15-7.08.71Q290,185.66,290,198v4.25l.71,6,6,.36h2.83q11.32,0,18.4-6a8.46,8.46,0,0,0,3.89-7.07q0-6-8.49-9.56A32.29,32.29,0,0,0,301.34,183.88Zm.35-59.08c-4.72,0-7.66.65-8.84,1.94s-1.77,4.55-1.77,9.73v7.08h7.78q17.34,0,17.34-9.91Q316.2,124.81,301.69,124.8Z"/><path class="cls-2" d="M480,76.68q13.44,0,27.95.88t18.4,2.66q3.52,1.41,7.43,10.26Q538,100,548.65,129q14.15,36.09,23.7,58,23,54.48,23,63c0,2.36-1.41,4.49-4.25,6.37q-7.79,5.31-32.54,5.31a9,9,0,0,1-2.83-.36h-2.48q-7.43-.71-10.79-4.06t-6.2-12.92l-2.83-9.2-8.13-.71q-12.74-1.4-36.09-1.41-11.67,0-14.15.35l-11.32,1.06-3.54,9.91q-3.18,8.85-5.31,11.32c-1.41,1.66-4.13,2.83-8.14,3.54q-6.36,1.06-19.81,1.06t-18.57-1.41c-3.43-.94-5.13-3.3-5.13-7.08q0-7.06,10.26-35.73,12.74-36.44,23.35-69,20.5-63,31.49-68.64Q472.59,76.68,480,76.68Zm18,62.27q-1.05,0-8.31,18.75t-7.25,21.94q0,3.18,18.75,3.18a46.93,46.93,0,0,0,9.55-.71c2.12-.47,3.19-1.64,3.19-3.54q0-5.65-9.56-27.24Q498.41,139,498.05,139Z"/><path class="cls-2" d="M216.25,308.63a156,156,0,0,1,46,7.07q10.25,3.18,14.15,6.37a10.07,10.07,0,0,1,3.89,8.14q0,3.9-5.48,18.93a184.34,184.34,0,0,1-10.09,23.52,5,5,0,0,1-5,3.54q-2.13,0-8.85-2.83a67.79,67.79,0,0,0-27.24-6h-2.12l-1.77.35q-10.26,1.43-20.34,8.84t-14.69,17a44.38,44.38,0,0,0-3.89,18.75q0,18,10.08,28.66T224,451.56a60.83,60.83,0,0,0,25.47-5.31,20.67,20.67,0,0,1,9.9-2.47,8.17,8.17,0,0,1,6,2.12q2.83,3.18,8.67,15.75t6.54,16.8a8.88,8.88,0,0,1,.36,3.18q0,6-5.66,9.56-5.67,4.24-22.29,9.55-23.72,8.14-41,8.14h-6.37q-21.22-1.06-34.14-6.55t-26.36-19.28Q115.41,453.7,115.42,407q0-11.67,1.41-17,3.54-18,15.57-34.85a121.13,121.13,0,0,1,29.19-28.83,96.43,96.43,0,0,1,35.91-15.93A107.62,107.62,0,0,1,216.25,308.63Z"/><path class="cls-2" d="M378.64,320.57q13.46,0,27.95.88t18.4,2.66q3.54,1.41,7.43,10.26,4.24,9.54,14.86,38.56Q461.42,409,471,431q23,54.49,23,63,0,3.54-4.24,6.37-7.78,5.31-32.55,5.31a9,9,0,0,1-2.83-.36h-2.48q-7.42-.71-10.79-4.07t-6.19-12.91l-2.83-9.2-8.14-.71Q411.2,477,387.84,477q-11.67,0-14.15.35l-11.32,1.06-3.54,9.91q-3.18,8.85-5.31,11.32c-1.41,1.66-4.12,2.83-8.13,3.54q-6.37,1.06-19.82,1.06T307,502.78q-5.13-1.41-5.13-7.08,0-7.08,10.26-35.73,12.74-36.45,23.35-69Q356,328,367,322.34,371.22,320.57,378.64,320.57Zm18.05,62.27q-1.06,0-8.32,18.75t-7.25,21.93q0,3.19,18.75,3.19a47,47,0,0,0,9.56-.71q3.18-.71,3.18-3.54,0-5.65-9.55-27.24Q397,382.85,396.69,382.84Z"/><path class="cls-2" d="M538.56,319.51h8.14a168.13,168.13,0,0,1,18.58,1.24,19.44,19.44,0,0,1,9.37,3.71q3.54,2.84,8.85,9.91l44.58,59.44c.94,1.41,1.64,1.89,2.12,1.41s1.18-8,2.12-22.64a71.51,71.51,0,0,0,.36-8.14q1.76-23.35,3.18-31.67t5.66-11.14q4.25-2.83,14.86-2.83l17.34.35q14.85,0,19.1,1.42c3.06.94,5,3.18,5.66,6.72q1.41,9.21,1.77,66.16,0,11,.36,18.75v16.63q0,38.22-2.13,52-1.41,9.21-3.71,12.91a10.38,10.38,0,0,1-6.37,4.78,141.58,141.58,0,0,1-15,2.48A221.77,221.77,0,0,1,649,502.78q-7.08,0-9-.71t-4.78-3.89q-4.95-4.95-15.21-20.88-35.38-53.07-37.15-53.42-.72,0-1.42,16.63-1.77,50.94-5,54.13-3.54,3.54-20.52,3.54a27.61,27.61,0,0,1-4.6-.36H546q-3.54-.35-13.79-.88c-6.85-.36-10.68-1.53-11.5-3.54s-1.48-5.95-2-11.85q-1.07-12.39-1.06-74.65,0-59.08.71-73.95.35-10.62,5.66-12.74Q527.59,319.51,538.56,319.51Z"/><path class="cls-2" d="M379.62,309.65c-3.35-.13-7.19-.59-9.05-3.37-1.62-2.44-1.05-5.67-.41-8.53l2.36-10.56c.42-1.92,1-4,2.59-5.12a7.72,7.72,0,0,1,3.45-1,121,121,0,0,1,40.51,2.11c11.5,2.58,15.25,17,5.26,24.08C415.36,313.59,390.16,310.07,379.62,309.65Z"/><path class="cls-3" d="M687.16,96.54c-2.66,18.81-18.17,44.52-24.73,52.75-16.12,20.25-25.38,43.25-36.94,66.07-10.5,20.73-20.92-3.34-22.75-15.69-2.67-18-.12-35.47,4.34-52.81,4.31-16.77,11-32.44,22.25-45.88a90.19,90.19,0,0,1,22.09-19.46c5.54-3.37,11.38-6,18-6.21C685.08,74.75,688.91,84.15,687.16,96.54Z"/><path class="cls-3" d="M58.73,330.5a47.94,47.94,0,0,1,6.05-23.14,96.65,96.65,0,0,1,27.79-31.68c24.56-18.26,52.35-24.93,82.53-22.08A40.86,40.86,0,0,1,189,258c4.85,2.4,4.45,7.27-.33,9.75-30.5,15.82-57.49,36.46-82.64,59.71a125.42,125.42,0,0,1-18,13.41,21.23,21.23,0,0,1-16.68,2.88C63.12,341.72,58.64,336.09,58.73,330.5Z"/><path class="cls-4" d="M201.79,221.64c-.65,10.08-3.28,23.91-10.62,17.51a17.34,17.34,0,0,1-1.73-1.9c-4.56-5.41-9.24-10.72-13.65-16.24a201.54,201.54,0,0,0-37.9-36.48c-9.86-7.28-18.76-15.76-25.72-25.94a70.87,70.87,0,0,1-8.09-15.26c-3.85-10.38.91-18.24,11.71-20.68,5.87-1.32,11.53-.24,17.1,1.46a79.45,79.45,0,0,1,36.47,23.23c16.19,18.09,29,41.27,32.46,65.58A53.31,53.31,0,0,1,201.79,221.64Z"/><path class="cls-4" d="M681.7,251.42c19.92,0,36.25,1.82,52.11,6.93,7.4,2.38,14.47,5.42,20.53,10.37a40.21,40.21,0,0,1,6.75,6.8c5.39,7.17,7.24,15.09,3.26,23.52S753.14,311.71,744,312.59c-6.88.65-13.25-1.41-19.09-4.68-8.58-4.82-16.9-10.1-25.3-15.23s-16.62-10.6-25.18-15.45c-11.13-6.3-23-10.28-36-10.43a4.22,4.22,0,0,1-1.9-.17,6.48,6.48,0,0,1-2.74-2.17c-.29-.6.39-2.2,1.09-2.68a29,29,0,0,1,6.64-3.71C655.57,253.23,670.07,250.77,681.7,251.42Z"/><path class="cls-1" d="M716.47,170.8a34.62,34.62,0,0,1,4.84.79c5.42,1.53,8.6,5.77,7.17,11.15-1.18,4.42-3.16,9.1-6.15,12.45A99.6,99.6,0,0,1,706,209.64a118,118,0,0,1-35.16,17.07c-6.58,1.94-13.13,4-19.75,5.82a35.85,35.85,0,0,1-8.26,1.16c-4.71.13-6.25-2.33-4-6.58a70.12,70.12,0,0,1,7.2-11.41c13.21-16,28.28-29.94,47.29-39C700.41,173.38,707.68,170.88,716.47,170.8Z"/><path class="cls-1" d="M84.71,194.82c3.66.45,6.67.6,9.59,1.21a162.46,162.46,0,0,1,55,22.46c8.26,5.31,21.48,17.73,2.74,15.23-21.73-2.89-43.11-6-64.57-10.22a60.91,60.91,0,0,1-14.39-5.29c-4.5-2.16-7.43-6-7-11.31.5-5.54,3.88-9,9.12-10.36C78.54,195.67,82,195.3,84.71,194.82Z"/><path class="cls-2" d="M140.73,561.06V561a10.59,10.59,0,0,1,10.39-10.68,10.71,10.71,0,0,1,8.16,3.76l-1.4,1.44c-1.76-1.8-3.76-3.36-6.8-3.36-4.64,0-8.23,3.88-8.23,8.76V561a8.58,8.58,0,0,0,8.39,8.84,9.09,9.09,0,0,0,6.84-3.41l1.36,1.2a10.46,10.46,0,0,1-18.71-6.55Z"/><path class="cls-2" d="M163,561.06V561a10.48,10.48,0,1,1,20.95-.08V561a10.53,10.53,0,0,1-10.52,10.67A10.41,10.41,0,0,1,163,561.06Zm18.83,0V561a8.55,8.55,0,0,0-8.4-8.84c-4.84,0-8.31,4-8.31,8.76V561a8.55,8.55,0,0,0,8.39,8.84C178.32,569.82,181.8,565.86,181.8,561.06Z"/><path class="cls-2" d="M190,550.78h2v3.64c1.32-2.12,3.16-4.12,6.8-4.12a7.32,7.32,0,0,1,6.87,4.4,8.1,8.1,0,0,1,7.36-4.4c4.84,0,7.84,3.4,7.84,8.52v12.35h-2V559.06c0-4.4-2.28-7-6-7-3.44,0-6.44,2.64-6.44,7.2v11.87h-2V558.94c0-4.24-2.31-6.84-5.95-6.84s-6.52,3.2-6.52,7.32v11.75h-2Z"/><path class="cls-2" d="M228,550.78h2v4.56c1.76-2.68,4.36-5,8.39-5,4.92,0,9.92,4,9.92,10.6V561c0,6.63-5,10.67-9.92,10.67a9.82,9.82,0,0,1-8.39-4.87v10.79h-2Zm18.15,10.28V561c0-5.36-3.72-8.8-8-8.8a8.54,8.54,0,0,0-8.31,8.76V561a8.51,8.51,0,0,0,8.31,8.75C242.59,569.77,246.15,566.54,246.15,561.06Z"/><path class="cls-2" d="M254.4,550.78h2v5.8a9.62,9.62,0,0,1,9-6.12v2.16h-.2c-4.72,0-8.83,3.56-8.83,10.2v8.35h-2Z"/><path class="cls-2" d="M267.72,565.25v-.08c0-4.23,3.63-6.63,8.91-6.63a24.54,24.54,0,0,1,6.76.88v-.88c0-4.12-2.52-6.24-6.72-6.24a13.6,13.6,0,0,0-6.39,1.64l-.73-1.72a16.39,16.39,0,0,1,7.24-1.76,8.81,8.81,0,0,1,6.44,2.24,7.74,7.74,0,0,1,2.08,5.76v12.71h-1.92v-3.4a9.28,9.28,0,0,1-7.8,3.88C271.79,571.65,267.72,569.49,267.72,565.25Zm15.71-1.72v-2.31a27,27,0,0,0-6.92-.92c-4.32,0-6.72,1.91-6.72,4.76v.08c0,3,2.8,4.68,5.92,4.68C279.87,569.82,283.43,567.26,283.43,563.53Z"/><path class="cls-2" d="M304.35,542h2v12.6a8,8,0,0,1,7.36-4.28c5.15,0,8.16,3.52,8.16,8.4v12.47h-2V559.06c0-4.2-2.37-7-6.48-7a7,7,0,0,0-7.08,7.28v11.79h-2Z"/><path class="cls-2" d="M327.47,561.06V561A10.54,10.54,0,0,1,338,550.3a10.43,10.43,0,0,1,10.44,10.6V561a10.53,10.53,0,0,1-10.51,10.67A10.42,10.42,0,0,1,327.47,561.06Zm18.83,0V561a8.55,8.55,0,0,0-8.39-8.84c-4.84,0-8.32,4-8.32,8.76V561a8.56,8.56,0,0,0,8.39,8.84C342.82,569.82,346.3,565.86,346.3,561.06Z"/><path class="cls-2" d="M351.71,576.81l.68-1.72a7.11,7.11,0,0,0,3.48.76c2.11,0,3.51-1.24,5-4.8l-9.8-20.27h2.28L361.86,569l7.36-18.23h2.16l-8.84,21.11c-1.79,4.28-3.88,5.8-6.79,5.8A9.18,9.18,0,0,1,351.71,576.81Z"/><path class="cls-2" d="M371.79,574.45c1.72-.88,2.36-1.76,2.24-3.28H373v-3.4h2.64v3c0,2.48-.92,3.8-3.32,4.72Z"/><path class="cls-2" d="M393.27,561.06V561c0-6.64,5-10.68,9.91-10.68a9.81,9.81,0,0,1,8.4,4.88V542h2v29.19h-2v-4.55c-1.76,2.67-4.36,5-8.4,5C398.27,571.65,393.27,567.69,393.27,561.06Zm18.43,0v-.08a8.52,8.52,0,0,0-8.32-8.76c-4.44,0-8,3.24-8,8.72V561c0,5.35,3.71,8.79,8,8.79A8.53,8.53,0,0,0,411.7,561Z"/><path class="cls-2" d="M421,542.79h2.44v2.68H421Zm.24,8h2v20.39h-2Z"/><path class="cls-2" d="M429.18,568.61l1.16-1.56a12,12,0,0,0,7.32,2.68c2.76,0,4.92-1.52,4.92-3.87v-.08c0-2.4-2.56-3.28-5.4-4.08-3.32-1-7-2-7-5.6V556c0-3.28,2.76-5.64,6.72-5.64a13.77,13.77,0,0,1,7.24,2.24l-1,1.64a11.72,11.72,0,0,0-6.28-2c-2.8,0-4.64,1.52-4.64,3.56v.08c0,2.28,2.76,3.12,5.68,4,3.28.92,6.72,2.12,6.72,5.72v.08c0,3.63-3.12,6-7,6A14,14,0,0,1,429.18,568.61Z"/><path class="cls-2" d="M452,552.58h-3v-1.8h3v-2a7.38,7.38,0,0,1,1.8-5.32,5.84,5.84,0,0,1,4.27-1.59,8.66,8.66,0,0,1,3,.48v1.83a9.73,9.73,0,0,0-3-.51c-2.79,0-4.11,1.67-4.11,5.15v2h7.12v1.8H454v18.59h-2Z"/><path class="cls-2" d="M465.3,550.78h2v5.8a9.63,9.63,0,0,1,9-6.12v2.16h-.2c-4.71,0-8.83,3.56-8.83,10.2v8.35h-2Z"/><path class="cls-2" d="M480.9,563.26V550.78h2V562.9c0,4.2,2.36,7,6.47,7a7,7,0,0,0,7.08-7.27v-11.8h2v20.39h-2v-3.8a8,8,0,0,1-7.35,4.28C483.9,571.65,480.9,568.13,480.9,563.26Z"/><path class="cls-2" d="M506.9,565.94V552.58h-3v-1.8h3v-6.51h2v6.51H516v1.8h-7.15v13.15c0,2.92,1.71,4,4.07,4a6.83,6.83,0,0,0,3-.72v1.84a7.49,7.49,0,0,1-3.32.72C509.45,571.53,506.9,569.82,506.9,565.94Z"/><path class="cls-2" d="M520.14,565.25v-.08c0-4.23,3.63-6.63,8.91-6.63a24.54,24.54,0,0,1,6.76.88v-.88c0-4.12-2.52-6.24-6.72-6.24a13.67,13.67,0,0,0-6.4,1.64l-.72-1.72a16.39,16.39,0,0,1,7.24-1.76,8.81,8.81,0,0,1,6.44,2.24,7.74,7.74,0,0,1,2.08,5.76v12.71h-1.92v-3.4a9.28,9.28,0,0,1-7.8,3.88C524.21,571.65,520.14,569.49,520.14,565.25Zm15.71-1.72v-2.31a27,27,0,0,0-6.92-.92c-4.32,0-6.72,1.91-6.72,4.76v.08c0,3,2.8,4.68,5.92,4.68C532.29,569.82,535.85,567.26,535.85,563.53Z"/><path class="cls-2" d="M556.77,550.78h2v3.64c1.32-2.12,3.16-4.12,6.8-4.12a7.32,7.32,0,0,1,6.87,4.4,8.1,8.1,0,0,1,7.36-4.4c4.84,0,7.83,3.4,7.83,8.52v12.35h-2V559.06c0-4.4-2.28-7-6-7-3.44,0-6.44,2.64-6.44,7.2v11.87h-2V558.94c0-4.24-2.31-6.84-6-6.84s-6.52,3.2-6.52,7.32v11.75h-2Z"/><path class="cls-2" d="M593.13,565.25v-.08c0-4.23,3.64-6.63,8.91-6.63a24.54,24.54,0,0,1,6.76.88v-.88c0-4.12-2.52-6.24-6.72-6.24a13.6,13.6,0,0,0-6.39,1.64l-.72-1.72a16.35,16.35,0,0,1,7.23-1.76,8.81,8.81,0,0,1,6.44,2.24,7.74,7.74,0,0,1,2.08,5.76v12.71H608.8v-3.4a9.28,9.28,0,0,1-7.8,3.88C597.2,571.65,593.13,569.49,593.13,565.25Zm15.71-1.72v-2.31a27,27,0,0,0-6.92-.92c-4.31,0-6.71,1.91-6.71,4.76v.08c0,3,2.8,4.68,5.91,4.68C605.28,569.82,608.84,567.26,608.84,563.53Z"/><path class="cls-2" d="M617.77,550.78h2v3.8a8,8,0,0,1,7.35-4.28c5.16,0,8.16,3.52,8.16,8.4v12.47h-2V559.06c0-4.2-2.36-7-6.48-7a7,7,0,0,0-7.07,7.28v11.79h-2Zm2.91-3.4c.77-2.87,1.77-3.71,3.36-3.71s3.76,1.64,5.12,1.64c1,0,1.4-.48,2-2l1.36.37c-.76,2.88-1.76,3.71-3.36,3.71s-3.75-1.64-5.12-1.64c-1,0-1.4.49-2,2Z"/><path class="cls-2" d="M640.61,565.25v-.08c0-4.23,3.63-6.63,8.91-6.63a24.54,24.54,0,0,1,6.76.88v-.88c0-4.12-2.52-6.24-6.72-6.24a13.67,13.67,0,0,0-6.4,1.64l-.72-1.72a16.39,16.39,0,0,1,7.24-1.76,8.81,8.81,0,0,1,6.44,2.24,7.74,7.74,0,0,1,2.08,5.76v12.71h-1.92v-3.4a9.28,9.28,0,0,1-7.8,3.88C644.68,571.65,640.61,569.49,640.61,565.25Zm15.71-1.72v-2.31a27,27,0,0,0-6.92-.92c-4.32,0-6.72,1.91-6.72,4.76v.08c0,3,2.8,4.68,5.92,4.68C652.76,569.82,656.32,567.26,656.32,563.53Z"/><path class="cls-2" d="M665.24,550.78h2v3.8a8,8,0,0,1,7.36-4.28c5.15,0,8.15,3.52,8.15,8.4v12.47h-2V559.06c0-4.2-2.36-7-6.47-7a7,7,0,0,0-7.08,7.28v11.79h-2Z"/><path class="cls-2" d="M688.08,565.25v-.08c0-4.23,3.64-6.63,8.92-6.63a24.54,24.54,0,0,1,6.76.88v-.88c0-4.12-2.52-6.24-6.72-6.24a13.67,13.67,0,0,0-6.4,1.64l-.72-1.72a16.39,16.39,0,0,1,7.24-1.76,8.81,8.81,0,0,1,6.44,2.24,7.78,7.78,0,0,1,2.07,5.76v12.71h-1.91v-3.4a9.28,9.28,0,0,1-7.8,3.88C692.16,571.65,688.08,569.49,688.08,565.25Zm15.71-1.72v-2.31a27,27,0,0,0-6.91-.92c-4.32,0-6.72,1.91-6.72,4.76v.08c0,3,2.8,4.68,5.92,4.68C700.24,569.82,703.79,567.26,703.79,563.53Z"/></svg>