<svg  id="Capa_1" data-name="Capa 1" xmlns="http://www.w3.org/2000/svg" viewBox="0 0 1080 1080"><defs><style>.cls-1,.cls-5{fill:#10cfc9;}.cls-1{stroke:#10cfc9;stroke-miterlimit:10;}.cls-2{fill:#1d224c;}.cls-3{fill:#ffc600;}.cls-4{fill:#f5333f;}</style></defs><title>B</title><path class="cls-1" d="M411.77,724.59h-4.61c-42.94,0-68-5.5-76.45-16.84-2.57-3.58-4.19-11.11-5.11-23.74-.45-5.29-.67-23.87-.67-56.78l-.66-55.91V518.64c0-41.2,1.11-73.6,3.3-96.33,1.8-19.84,5-33.44,9.9-41.56s13.14-13.86,24.31-16.65c3.78-.94,12.81-1.39,27.61-1.39,40.29,0,77.52,2.77,110.65,8.26s59.73,13,78.71,22.27a103.61,103.61,0,0,1,28.07,21.63c8.36,9.05,14,18.25,16.71,27.35,2.3,9.19,3.4,16.07,3.4,21.15,0,20.84-9.14,39.86-27.16,56.53l-11.46,9.9,3.53,1.6c22.58,9,37.5,29.6,44.24,61.06,2.26,11.29,3.35,19.64,3.35,25.55,0,23.5-8.83,43-26.24,57.91-17.14,14.69-44.18,26.61-80.38,35.44C495.49,720.14,454.78,724.59,411.77,724.59ZM389.39,367.92c-17.65,0-24.07.67-26.35,1.24-9.78,2.44-16.88,7.25-21.1,14.28-4.39,7.32-7.48,20.56-9.18,39.36-2.17,22.57-3.28,54.81-3.28,95.84v52.65l.66,55.91c0,32.34.22,51.3.65,56.4,1.1,14.86,3.06,19.58,4.13,21.07,7.31,9.75,31.62,14.71,72.24,14.71h4.61c42.6,0,82.92-4.4,119.83-13.09,35.37-8.63,61.69-20.17,78.2-34.32,16.2-13.9,24.42-32.05,24.42-54,0-5.49-1.09-13.73-3.24-24.49-6.35-29.63-20.21-48.92-41.19-57.32l-11-5L596.3,516c16.84-15.58,25.42-33.31,25.42-52.64,0-4.58-1.08-11.23-3.22-19.77-2.46-8.22-7.69-16.73-15.5-25.19a98.07,98.07,0,0,0-26.61-20.51c-18.46-9-44.45-16.36-77.2-21.79S429.39,367.92,389.39,367.92Zm84.24,254.67h-5.27l-13.52-.79-1.59-13.66v-7.89c0-17.11,3.14-25.86,9.88-27.54l.37-.07,13.42-1.33a62.55,62.55,0,0,1,23.34,4.14c11.58,4.83,17.43,11.61,17.43,20.19,0,6.12-2.8,11.25-8.31,15.27C500.31,618.62,488.23,622.59,473.63,622.59Zm-14.12-5.74,9,.54h5.12c13.33,0,24.28-3.55,32.53-10.57,4.3-3.14,6.32-6.75,6.32-11.17,0-6.36-4.64-11.38-14.19-15.37a57.51,57.51,0,0,0-21.24-3.74l-12.81,1.28c-1.86.58-5.78,4-5.78,22.44V608Zm12.8-115.34H455.23V485.74c0-10.57,1.26-16.88,4-19.85s8.61-4.47,18.38-4.47c24.45,0,29.58,10.36,29.58,19.05C507.16,494.43,495.44,501.51,472.31,501.51Zm-11.87-5.22h11.87c29.64,0,29.64-11.9,29.64-15.82,0-3.42,0-13.84-24.37-13.84-10.84,0-13.77,1.93-14.53,2.77s-2.61,4.18-2.61,16.34Z"/><path class="cls-2" d="M398.27,355.41q60.54,0,110.23,8.22t78,22.05a100.28,100.28,0,0,1,27.31,21.06q12.16,13.17,16.12,26.32,3.3,13.17,3.3,20.4,0,30.27-26.33,54.62l-14.47,12.5,7.23,3.29Q632.55,537,642.42,583.1q3.29,16.46,3.29,25,0,34.23-25.34,55.94t-79.29,34.88q-56,13.17-120.43,13.16H416q-62.52,0-74.36-15.8-3.3-4.59-4.6-22.37-.68-7.89-.66-56.59l-.66-55.94V508.74q0-61.85,3.29-96.08,2.63-28.95,9.54-40.47t22.7-15.47Q376.56,355.42,398.27,355.41ZM485.8,564l-13.16,1.32q-7.9,2-7.9,25v7.9l1.32,11.18,11.18.66h5.27q21,0,34.22-11.19,7.23-5.26,7.24-13.16,0-11.18-15.8-17.77A59.87,59.87,0,0,0,485.8,564Zm.66-109.89q-13.18,0-16.46,3.62t-3.28,18.09V489h14.47q32.23,0,32.25-18.42Q513.44,454.13,486.46,454.12Z"/><path class="cls-3" d="M719.35,437.84c-5.25,16.45-17.46,29.91-29.59,41.72-13.24,12.91-23.2,27.83-34.17,42.65S639.74,516.83,640,507c.3-14.35,4.6-27.64,10.37-40.55,5.59-12.49,12.87-23.81,23.41-32.79a71,71,0,0,1,19.78-12.22c4.76-1.9,9.65-3.15,14.86-2.46C720.62,420.6,722.35,428.43,719.35,437.84Z"/><path class="cls-4" d="M694.59,557.74c15.51,2.63,28,6.21,39.66,12.29,5.45,2.83,10.55,6.14,14.61,10.8a31.3,31.3,0,0,1,4.36,6.19c3.25,6.3,3.64,12.71-.58,18.75s-10.41,8.38-17.67,7.84c-5.45-.39-10.13-2.85-14.24-6.17-6.05-4.88-11.83-10.1-17.7-15.21s-11.53-10.45-17.56-15.36c-7.83-6.38-16.58-11.06-26.66-12.9a3.35,3.35,0,0,1-1.46-.38,5.13,5.13,0,0,1-1.85-2.05c-.15-.51.59-1.67,1.2-1.95a22.68,22.68,0,0,1,5.67-2C674,555.68,685.62,555.69,694.59,557.74Z"/><path class="cls-5" d="M732.34,499.56a26.17,26.17,0,0,1,3.67,1.25c4,1.92,5.93,5.64,4.1,9.64a24.53,24.53,0,0,1-6.44,8.88,78.53,78.53,0,0,1-14.6,9.09,93.21,93.21,0,0,1-29.65,8.64c-5.38.64-10.75,1.39-16.14,1.91a28.5,28.5,0,0,1-6.59-.19c-3.68-.52-4.56-2.64-2.22-5.65a57.17,57.17,0,0,1,7.12-7.93c12.41-10.75,26-19.57,42-24.09C719.49,499.44,725.49,498.45,732.34,499.56Z"/></svg>